<svg xmlns="http://www.w3.org/2000/svg" width="900" height="730" viewBox="0 0 900 730"><rect width="900" height="730" rx="16" fill="#ffffff"/><g font-family="sans-serif" fill="#34453d"><text x="40" y="38" font-size="23">Accuracy × token efficiency × speed</text><text x="40" y="65" font-size="14">Apple M3 Ultra · 512 GiB · larger bubbles mean more scored answers per active minute</text><rect x="90" y="110" width="375.0" height="195.0" fill="#fff3d9"/><rect x="465.0" y="110" width="375.0" height="195.0" fill="#e0f1e4"/><rect x="90" y="305.0" width="375.0" height="195.0" fill="#f9e2df"/><rect x="465.0" y="305.0" width="375.0" height="195.0" fill="#e8edf8"/><path d="M90 500.0H840" stroke="white"/><text x="75" y="505.0" text-anchor="end" font-size="12">83.0%</text><text x="90.0" y="530" text-anchor="middle" font-size="12">7,000</text><path d="M90 402.5H840" stroke="white"/><text x="75" y="407.5" text-anchor="end" font-size="12">87.2%</text><text x="277.5" y="530" text-anchor="middle" font-size="12">5,250</text><path d="M90 305.0H840" stroke="white"/><text x="75" y="310.0" text-anchor="end" font-size="12">91.5%</text><text x="465.0" y="530" text-anchor="middle" font-size="12">3,500</text><path d="M90 207.5H840" stroke="white"/><text x="75" y="212.5" text-anchor="end" font-size="12">95.8%</text><text x="652.5" y="530" text-anchor="middle" font-size="12">1,750</text><path d="M90 110.0H840" stroke="white"/><text x="75" y="115.0" text-anchor="end" font-size="12">100.0%</text><text x="840.0" y="530" text-anchor="middle" font-size="12">0</text><path d="M465.0 110V500M90 305.0H840" stroke="#91a195" stroke-dasharray="5 5"/><text x="90" y="93" font-size="14">Accuracy ↑</text><text x="460" y="561" text-anchor="middle" font-size="14">Median output tokens per scored answer · fewer →</text><text x="100" y="150" font-size="10" text-anchor="start">ACCURATE · MORE TOKENS</text><text x="830" y="150" font-size="10" text-anchor="end">ACCURATE · FEWER TOKENS ↗</text><text x="100" y="485" font-size="10" text-anchor="start">LESS ACCURATE · MORE TOKENS</text><text x="830" y="485" font-size="10" text-anchor="end">LESS ACCURATE · FEWER TOKENS</text><circle cx="676.0714285714286" cy="110.0" r="20.0" fill="#28674f" fill-opacity=".75" stroke="white" stroke-width="3"><title>qwen3.8-27b-lmstudio-unsloth-q8-k-xl · 100.0% correct · 1,530 tokens · 0.32/min · n=19 · final</title></circle><text x="676.0714285714286" y="82.0" text-anchor="end" font-size="11" fill="#28674f">qwen3.8-27b-lmstudio-unsloth-q8-k-xl</text><text x="40" y="607" font-size="12" fill="#28674f">qwen3.8-27b-lmstudio-unsloth-q8-k-xl · 100.0% correct · 1,530 tokens · 0.32/min · n=19 · final</text><circle cx="177.53571428571422" cy="437.731092436975" r="12.139541871840873" fill="#4268b0" fill-opacity=".75" stroke="white" stroke-width="3"><title>qwen3.5-9b-lmstudio-bf16 · 85.7% correct · 6,183 tokens · 0.12/min · n=7 · final</title></circle><text x="177.53571428571422" y="417.5915505651341" text-anchor="start" font-size="11" fill="#4268b0">qwen3.5-9b-lmstudio-bf16</text><text x="40" y="647" font-size="12" fill="#4268b0">qwen3.5-9b-lmstudio-bf16 · 85.7% correct · 6,183 tokens · 0.12/min · n=7 · final</text><text x="40" y="710" font-size="10">Axes fit the data; quadrants bisect their ranges. Question subsets and tokenizers may differ. Bubble area is proportional to speed.</text></g></svg>